<?xml version="1.0" standalone="no"?>
<!DOCTYPE svg PUBLIC "-//W3C//DTD SVG 20010904//EN"
 "http://www.w3.org/TR/2001/REC-SVG-20010904/DTD/svg10.dtd">
<svg version="1.0" xmlns="http://www.w3.org/2000/svg"
 width="500.000000pt" height="500.000000pt" viewBox="0 0 500.000000 500.000000"
 preserveAspectRatio="xMidYMid meet">

<g transform="translate(0.000000,500.000000) scale(0.100000,-0.100000)"
fill="#000000" stroke="none">
<path d="M2493 4922 c-53 -5 -55 -14 -42 -181 10 -122 10 -153 -1 -165 -15
-19 -34 -20 -49 -3 -6 8 -15 69 -21 138 -14 171 -18 187 -39 194 -31 10 -255
-15 -270 -30 -21 -21 12 -414 36 -433 16 -11 73 -8 97 6 8 5 1 190 -11 278 -4
30 -1 45 12 57 19 19 24 20 45 7 10 -6 18 -50 27 -161 9 -102 18 -158 27 -167
11 -12 35 -12 142 -2 142 12 158 20 149 75 -2 16 -9 98 -15 180 -6 83 -13 160
-16 172 -5 28 -29 40 -71 35z"/>
<path d="M2801 4891 c-9 -6 -29 -86 -53 -212 -32 -167 -37 -204 -26 -215 15
-16 143 -44 196 -44 46 0 96 30 116 68 8 16 24 79 36 140 24 127 20 159 -28
205 -36 34 -212 76 -241 58z m156 -137 c6 -16 -8 -113 -28 -186 -8 -31 -14
-38 -34 -38 -39 0 -43 23 -24 126 10 52 21 99 24 104 10 16 55 11 62 -6z"/>
<path d="M1685 4769 c-82 -32 -115 -70 -115 -131 0 -30 45 -167 101 -310 14
-36 32 -41 79 -22 44 18 47 27 28 99 -10 39 -10 47 4 61 23 24 55 3 69 -47 17
-54 40 -65 87 -42 22 10 38 26 40 38 4 29 -103 303 -129 331 -20 21 -76 45
-104 43 -5 0 -32 -9 -60 -20z m87 -139 c22 -46 22 -67 -1 -80 -30 -16 -48 -2
-65 47 -12 35 -13 49 -4 60 19 23 52 11 70 -27z"/>
<path d="M3618 4603 c-41 -47 -218 -325 -218 -342 0 -20 55 -61 82 -61 8 0 32
25 52 55 20 31 43 58 51 61 19 8 101 -40 115 -66 9 -16 4 -30 -25 -72 -44 -66
-44 -87 0 -117 42 -28 55 -24 96 31 51 70 54 82 30 115 -34 46 -8 83 45 63 21
-8 29 -6 49 16 14 15 29 43 35 63 17 62 -8 95 -145 188 -66 45 -127 82 -136
82 -9 1 -23 -7 -31 -16z m150 -180 c34 -26 41 -53 18 -72 -17 -14 -38 -6 -93
36 -36 26 -43 57 -16 72 19 10 39 3 91 -36z"/>
<path d="M1128 4479 c-16 -11 -28 -27 -28 -34 0 -21 219 -352 237 -359 20 -8
227 124 231 148 5 25 -25 66 -49 66 -11 0 -40 -13 -64 -30 -24 -16 -52 -30
-63 -30 -13 0 -44 39 -103 130 -92 142 -105 151 -161 109z"/>
<path d="M888 4279 c-50 -37 -40 -57 104 -210 72 -77 140 -145 149 -150 14 -7
26 -2 54 22 19 17 35 37 35 45 0 20 -280 314 -299 314 -9 0 -28 -10 -43 -21z"/>
<path d="M3973 4108 c-103 -102 -143 -149 -143 -166 0 -27 42 -72 67 -72 17 0
313 287 313 303 0 14 -63 77 -78 77 -8 0 -80 -64 -159 -142z"/>
<path d="M660 4011 c-54 -28 -100 -103 -100 -161 0 -63 18 -84 164 -192 137
-101 155 -106 190 -45 l21 37 -49 43 c-44 39 -48 45 -37 65 15 29 39 28 81 -3
19 -14 42 -25 51 -25 22 0 73 65 66 84 -6 15 -219 176 -266 200 -40 21 -79 20
-121 -3z m86 -122 c43 -26 60 -55 43 -75 -18 -22 -52 -17 -87 15 -36 34 -39
43 -16 65 20 20 20 20 60 -5z"/>
<path d="M2280 4005 c-102 -15 -183 -36 -276 -71 -590 -220 -974 -765 -974
-1382 0 -399 151 -762 434 -1045 204 -203 460 -340 756 -404 120 -25 439 -26
560 0 533 112 945 474 1118 982 138 407 80 886 -153 1251 -230 360 -615 610
-1030 669 -120 18 -319 17 -435 0z m505 -103 c427 -98 773 -368 960 -750 174
-356 183 -787 23 -1157 -172 -397 -541 -699 -973 -796 -128 -29 -369 -37 -500
-16 -365 58 -693 258 -912 554 -105 141 -198 350 -238 533 -25 115 -31 363
-11 487 84 533 469 971 982 1118 161 46 226 54 409 51 125 -3 194 -9 260 -24z"/>
<path d="M2357 3879 c-148 -14 -291 -56 -439 -129 -324 -159 -555 -416 -676
-750 -126 -348 -99 -741 74 -1068 189 -359 519 -608 919 -694 142 -30 388 -30
532 1 265 56 488 176 678 366 193 193 311 414 372 696 25 117 25 380 0 499
-125 594 -599 1023 -1192 1080 -122 11 -141 11 -268 -1z m184 -69 c26 -14 54
-73 69 -145 13 -64 19 -309 8 -321 -4 -3 -24 -3 -44 0 l-37 7 7 52 c8 68 -9
256 -27 298 l-14 34 -12 -40 c-18 -62 -33 -234 -26 -292 4 -31 3 -53 -3 -53
-5 0 -23 -3 -40 -6 l-30 -6 -6 58 c-9 73 9 263 29 325 28 82 75 116 126 89z
m-377 -105 c47 -47 101 -146 142 -261 19 -52 34 -99 34 -105 0 -8 -45 -23 -66
-21 -4 0 -22 41 -39 90 -36 100 -88 203 -116 228 -18 16 -19 16 -19 -12 0 -41
34 -179 64 -258 14 -38 26 -72 26 -76 0 -13 -60 -34 -70 -24 -28 30 -100 290
-100 362 0 108 74 147 144 77z m786 25 c21 -11 40 -60 40 -102 0 -52 -31 -181
-67 -279 l-36 -96 -38 15 -38 15 21 51 c33 80 65 196 73 261 l8 60 -23 -20
c-25 -22 -108 -191 -135 -273 -14 -44 -20 -52 -36 -47 -64 18 -61 7 -28 103
45 127 104 235 155 282 44 40 70 48 104 30z m-1125 -228 c55 -35 134 -112 201
-194 60 -72 61 -83 11 -109 -15 -9 -22 -6 -35 13 -66 94 -233 251 -249 234
-13 -13 89 -173 162 -254 l48 -53 -28 -29 -28 -29 -41 46 c-115 130 -196 268
-196 335 0 28 6 42 27 58 32 25 69 20 128 -18z m1495 8 c51 -51 -2 -175 -154
-357 -33 -40 -63 -73 -66 -72 -3 0 -15 13 -28 29 l-23 29 53 63 c83 97 168
231 155 244 -12 12 -139 -101 -223 -200 l-51 -60 -31 23 -32 22 46 59 c60 77
158 171 219 209 57 36 106 40 135 11z m-635 -276 c227 -60 417 -242 492 -469
23 -68 27 -98 27 -205 1 -145 -11 -203 -64 -315 -200 -419 -739 -536 -1096
-238 -103 87 -194 230 -230 363 -21 81 -24 263 -5 340 69 275 298 489 579 540
65 12 225 4 297 -16z m-1109 -29 c86 -26 294 -139 294 -160 -1 -11 -35 -55
-43 -55 -3 0 -38 20 -78 45 -75 46 -214 105 -246 105 -31 -1 96 -110 196 -169
50 -29 91 -55 91 -58 0 -2 -7 -18 -16 -34 -18 -36 -18 -36 -125 28 -149 89
-232 167 -245 231 -5 25 -1 36 19 56 31 31 77 34 153 11z m1988 4 c33 -15 50
-57 37 -92 -24 -63 -167 -179 -307 -250 l-51 -26 -11 33 c-16 45 -17 43 31 67
100 51 269 180 255 195 -15 14 -229 -78 -312 -135 l-30 -20 -23 32 -23 32 22
17 c13 10 77 45 143 78 151 76 217 92 269 69z m-1988 -369 c172 -31 166 -28
159 -63 -4 -18 -10 -35 -14 -38 -3 -4 -51 1 -106 12 -103 19 -215 23 -249 10
-40 -15 106 -68 259 -94 49 -8 80 -18 79 -25 -1 -7 -2 -24 -2 -38 -2 -26 -2
-27 -63 -20 -138 16 -297 72 -351 123 -30 29 -36 68 -15 96 30 43 172 59 303
37z m2130 -23 c40 -21 50 -58 28 -97 -32 -54 -141 -98 -318 -130 -60 -11 -110
-20 -112 -20 -1 0 -4 18 -6 40 -4 43 -8 41 92 55 106 15 260 66 260 86 0 15
-180 10 -275 -6 -90 -16 -104 -13 -105 22 0 6 -2 18 -5 25 -4 11 19 18 102 31
175 28 279 26 339 -6z m-2006 -317 c0 -16 0 -33 -1 -37 0 -5 -49 -18 -107 -29
-99 -20 -135 -31 -217 -64 -28 -11 -28 -13 -10 -20 43 -18 245 -2 337 26 13 4
19 -4 27 -32 6 -21 8 -40 6 -42 -11 -11 -149 -32 -251 -38 -114 -7 -170 2
-206 34 -20 17 -24 63 -8 92 23 44 157 97 312 125 113 21 118 20 118 -15z
m1770 0 c201 -43 302 -112 268 -185 -19 -43 -71 -59 -182 -57 -82 1 -238 21
-283 37 -9 3 -9 13 -3 36 5 17 11 34 14 36 2 3 39 -2 81 -11 44 -9 126 -16
188 -16 97 0 109 2 92 14 -33 22 -155 62 -230 75 -123 21 -115 17 -115 61 l0
40 43 -6 c23 -3 80 -14 127 -24z m-1690 -302 c0 -10 -25 -30 -67 -53 -81 -44
-209 -139 -217 -162 -5 -13 -1 -15 29 -10 37 6 191 78 261 121 l41 25 22 -30
c13 -18 19 -35 14 -40 -21 -21 -175 -102 -245 -129 -130 -50 -218 -35 -218 39
0 67 140 191 315 279 l40 20 12 -21 c7 -12 12 -29 13 -39z m1569 1 c221 -132
300 -239 224 -299 -36 -28 -93 -22 -200 21 -72 28 -228 113 -237 128 -3 4 5
21 16 38 l22 30 82 -50 c80 -47 243 -112 254 -101 10 12 -111 111 -199 164
-50 29 -91 57 -91 61 0 18 24 59 34 59 6 0 49 -23 95 -51z m-1422 -201 c29
-27 29 -40 1 -64 -52 -46 -178 -233 -178 -264 0 -33 126 75 222 189 l45 54 32
-22 31 -23 -32 -41 c-18 -23 -69 -79 -114 -124 -130 -132 -227 -164 -263 -89
-12 25 -11 36 3 81 9 28 35 81 58 118 40 60 157 206 167 207 3 0 15 -10 28
-22z m1328 -173 c58 -88 89 -166 79 -199 -18 -58 -66 -71 -135 -36 -49 25
-169 138 -232 219 l-47 60 29 20 c16 12 31 21 33 21 3 0 37 -39 77 -86 70 -81
162 -164 183 -164 27 0 -35 107 -130 223 l-64 79 27 28 27 29 50 -57 c27 -31
74 -93 103 -137z m-1071 -25 c-36 -82 -77 -226 -81 -280 l-4 -65 21 25 c30 34
88 150 115 230 l22 65 38 -2 c21 -2 40 -4 42 -6 7 -8 -50 -153 -93 -237 -75
-147 -156 -201 -207 -139 -39 48 -9 246 63 414 l19 43 35 -16 c26 -12 35 -21
30 -32z m730 -30 c62 -169 82 -310 51 -370 -42 -81 -135 -27 -210 120 -28 56
-98 241 -92 246 2 2 21 5 41 7 l38 2 32 -90 c37 -103 63 -155 101 -205 l27
-35 -5 65 c-2 37 -21 115 -44 183 l-39 118 25 14 c14 8 31 14 37 15 7 0 23
-31 38 -70z m-473 -20 c14 0 17 -21 22 -142 6 -138 19 -218 36 -218 17 0 32
89 38 223 6 134 6 137 29 137 12 0 30 3 40 7 16 6 17 -4 11 -143 -4 -111 -11
-166 -26 -216 -34 -106 -94 -138 -145 -78 -42 50 -57 120 -63 289 l-6 154 24
-6 c13 -4 31 -7 40 -7z"/>
<path d="M2365 3179 c-27 -5 -93 -31 -145 -56 -78 -37 -109 -59 -171 -122
-295 -299 -235 -786 123 -1004 106 -64 181 -82 338 -82 120 1 142 4 202 27
191 73 325 207 396 396 37 99 43 268 13 377 -32 116 -81 197 -175 290 -82 81
-147 121 -261 160 -59 21 -245 29 -320 14z m267 -91 c85 -46 110 -133 68 -226
-28 -61 -100 -162 -116 -162 -18 0 -18 0 6 60 37 95 14 113 -25 20 -13 -30
-28 -56 -34 -58 -15 -5 -15 172 0 199 16 32 2 59 -31 59 -23 0 -31 -5 -36 -26
-4 -14 -2 -30 5 -37 6 -6 11 -49 11 -105 0 -109 -12 -117 -46 -31 -12 30 -28
54 -35 54 -17 0 -14 -22 12 -82 16 -37 17 -48 7 -54 -16 -10 -17 -10 -77 89
-52 86 -68 146 -56 201 12 57 64 102 140 122 53 14 162 2 207 -23z m-406 -224
c41 -27 59 -45 130 -137 59 -74 48 -91 -21 -32 -29 25 -58 45 -64 45 -28 0
-15 -23 38 -66 33 -27 58 -50 56 -52 -8 -8 -200 61 -208 74 -12 21 -55 17 -67
-6 -17 -31 4 -60 42 -60 33 0 197 -46 211 -59 4 -5 -26 -11 -68 -14 -81 -6
-91 -9 -81 -26 5 -7 34 -8 81 -4 63 5 75 3 75 -9 0 -10 -25 -22 -77 -36 -164
-44 -227 -39 -282 23 -42 48 -56 105 -42 174 25 126 102 211 190 211 35 0 59
-7 87 -26z m710 7 c65 -40 110 -123 120 -220 11 -104 -45 -181 -141 -196 -47
-7 -256 43 -263 63 -3 9 18 12 77 12 45 0 81 4 81 9 0 14 -27 21 -80 21 -93 0
-88 12 21 46 57 19 111 31 120 28 18 -5 49 20 49 40 0 33 -50 47 -79 22 -16
-13 -202 -79 -208 -72 -2 1 24 24 57 51 33 26 60 52 60 56 0 24 -25 14 -79
-31 -48 -40 -63 -48 -67 -35 -7 16 84 131 137 173 69 56 139 67 195 33z m-363
-232 c82 -64 37 -199 -67 -202 -71 -2 -116 46 -116 122 0 31 7 46 31 70 26 26
38 31 78 31 34 0 56 -6 74 -21z m-209 -157 c3 -5 -25 -28 -61 -51 -48 -31 -63
-45 -55 -53 8 -8 27 -2 71 25 32 21 62 37 66 37 11 0 -78 -122 -118 -162 -27
-26 -38 -44 -35 -60 6 -41 78 -32 78 9 0 17 120 187 127 180 2 -3 -3 -32 -11
-65 -19 -72 -20 -95 -4 -90 7 3 20 35 29 72 10 37 20 70 23 74 18 17 24 -23
16 -120 -9 -121 -31 -180 -82 -218 -114 -84 -348 53 -348 205 0 93 55 143 220
201 76 26 77 27 84 16z m373 -17 c149 -56 203 -110 203 -201 0 -91 -79 -181
-194 -220 -119 -41 -204 20 -226 162 -13 83 -10 186 6 191 6 2 16 -22 23 -54
16 -69 30 -98 42 -86 4 4 0 40 -10 81 -11 39 -16 72 -13 72 12 -1 116 -152
128 -185 12 -34 43 -44 67 -21 18 19 11 57 -12 63 -13 3 -103 118 -135 171
-10 17 -11 17 71 -35 57 -36 73 -40 73 -19 0 8 -29 31 -64 52 -60 35 -75 54
-41 54 8 0 45 -11 82 -25z"/>
<path d="M2450 2600 c-24 -24 -26 -67 -4 -98 20 -28 83 -31 107 -4 40 45 6
122 -53 122 -17 0 -39 -9 -50 -20z"/>
<path d="M4185 3904 c-158 -119 -185 -142 -185 -160 0 -19 50 -74 67 -74 17 0
296 205 329 241 18 20 18 21 -3 57 -34 60 -51 55 -208 -64z"/>
<path d="M4356 3660 c-60 -27 -120 -60 -133 -71 -29 -28 -46 -81 -38 -119 11
-50 115 -261 132 -267 8 -3 27 -2 42 3 40 14 37 48 -14 153 -25 52 -45 104
-43 115 2 15 27 33 88 63 47 24 94 42 105 40 15 -1 35 -32 76 -112 34 -66 63
-111 73 -113 25 -5 66 25 66 48 0 23 -103 236 -128 264 -19 21 -72 46 -99 46
-10 0 -67 -23 -127 -50z"/>
<path d="M386 3605 c-17 -17 -31 -78 -22 -93 3 -6 29 -18 56 -28 57 -21 85
-46 76 -69 -10 -28 -37 -28 -99 -2 -70 28 -87 24 -107 -22 -23 -56 -17 -61
185 -148 211 -91 221 -92 239 -20 12 45 3 56 -64 82 -57 22 -79 48 -59 71 16
19 46 17 98 -6 59 -27 78 -25 96 10 21 41 19 67 -7 84 -28 18 -353 156 -367
156 -5 0 -16 -7 -25 -15z"/>
<path d="M4548 3121 c-97 -20 -182 -41 -189 -48 -15 -15 -2 -90 18 -101 8 -5
34 -5 57 -1 68 13 106 11 113 -7 11 -30 -13 -49 -83 -64 -66 -15 -69 -17 -72
-46 -5 -47 13 -84 41 -84 22 0 353 64 389 76 24 7 30 31 17 76 l-10 40 -85 -7
c-74 -6 -85 -5 -91 10 -11 30 12 49 73 63 76 17 87 27 79 71 -9 47 -22 61 -54
60 -14 -1 -106 -17 -203 -38z"/>
<path d="M203 3098 c-16 -25 -61 -322 -52 -340 7 -13 22 -18 49 -18 41 0 42 1
55 67 3 17 13 34 22 37 8 3 83 -5 165 -19 93 -16 155 -22 160 -17 13 13 28 81
21 98 -6 17 -11 18 -173 44 -74 12 -141 27 -149 33 -9 8 -12 25 -8 53 2 23 0
49 -5 58 -11 19 -73 22 -85 4z"/>
<path d="M4422 2628 c-17 -17 -15 -93 3 -108 12 -10 61 -12 218 -6 172 5 204
9 215 23 15 20 16 57 2 84 -10 18 -23 19 -218 19 -149 0 -211 -3 -220 -12z"/>
<path d="M422 2398 c-7 -7 -12 -22 -12 -34 0 -49 -56 -58 -78 -11 -15 31 -51
36 -106 13 -71 -30 -78 -69 -46 -254 25 -149 26 -152 57 -152 47 0 387 61 400
72 18 14 17 32 -12 188 -22 123 -27 137 -55 163 -25 22 -40 27 -83 27 -29 0
-58 -5 -65 -12z m93 -153 c3 -14 7 -37 10 -51 9 -40 -3 -64 -30 -64 -29 0 -41
19 -50 84 -7 41 -5 51 10 62 23 17 53 2 60 -31z m-167 -57 c11 -59 2 -88 -27
-88 -27 0 -39 19 -47 79 -6 46 -4 56 11 67 29 21 51 1 63 -58z"/>
<path d="M4365 2079 c-9 -17 -15 -42 -13 -56 3 -23 17 -31 138 -77 161 -62
160 -61 160 -91 0 -41 -31 -39 -170 15 -72 27 -140 50 -150 50 -25 0 -41 -23
-47 -68 -4 -32 -2 -40 13 -46 11 -4 73 -28 139 -53 133 -51 145 -58 145 -83 0
-45 -23 -43 -175 14 -80 30 -152 53 -160 50 -7 -3 -21 -24 -30 -46 -15 -39
-15 -42 2 -58 25 -23 377 -154 396 -147 19 7 79 164 72 188 -3 10 -14 21 -25
24 -24 8 -32 32 -19 56 8 16 17 18 44 13 40 -7 50 6 89 108 23 63 24 68 8 86
-16 19 -356 152 -387 152 -8 0 -22 -14 -30 -31z"/>
<path d="M448 1814 c-100 -45 -149 -72 -153 -85 -8 -26 26 -83 51 -87 11 -2
80 24 154 57 138 61 170 66 170 22 0 -26 -9 -32 -150 -95 -69 -31 -131 -63
-138 -70 -11 -11 -10 -20 3 -54 9 -22 23 -43 32 -46 8 -4 82 24 164 60 186 83
209 106 200 203 -4 42 -50 121 -84 141 -52 32 -90 25 -249 -46z"/>
<path d="M4096 1497 c-35 -46 -33 -61 14 -94 42 -30 52 -61 25 -83 -12 -10
-24 -7 -63 19 -27 17 -54 31 -60 31 -15 0 -62 -63 -62 -83 0 -19 249 -205 290
-217 36 -10 95 2 122 27 70 62 97 159 60 216 -21 32 -266 217 -287 217 -8 0
-25 -15 -39 -33z m187 -223 c31 -20 38 -31 35 -52 -4 -36 -38 -40 -77 -11 -36
27 -47 54 -31 74 17 21 30 19 73 -11z"/>
<path d="M842 1490 c-29 -27 -28 -34 13 -90 19 -26 35 -56 35 -67 0 -12 -40
-48 -120 -108 -66 -49 -123 -97 -126 -108 -7 -21 39 -87 61 -87 25 0 340 243
343 265 3 27 -136 209 -163 213 -11 1 -30 -7 -43 -18z"/>
<path d="M1106 1168 c-9 -12 -16 -30 -16 -40 0 -9 39 -49 88 -88 48 -40 91
-79 96 -87 9 -17 -7 -41 -82 -130 -24 -29 -52 -53 -62 -53 -10 0 -59 34 -110
75 -51 41 -96 75 -101 75 -13 0 -59 -46 -59 -58 0 -14 28 -43 90 -94 125 -103
150 -118 191 -118 58 0 88 19 156 102 107 129 120 165 87 234 -18 38 -217 204
-245 204 -10 0 -25 -10 -33 -22z"/>
<path d="M3808 1159 c-38 -28 -35 -52 13 -109 42 -50 47 -75 16 -94 -15 -9
-26 -2 -72 46 -58 61 -69 64 -112 25 -13 -11 -23 -30 -23 -41 0 -31 254 -326
281 -326 11 0 34 13 50 30 34 34 33 40 -26 109 -38 46 -42 60 -23 79 22 22 45
12 87 -38 28 -33 50 -50 65 -50 28 0 81 53 73 74 -3 8 -63 82 -133 165 -136
161 -146 167 -196 130z"/>
<path d="M3406 873 c-80 -43 -106 -78 -106 -142 0 -59 140 -331 171 -331 28 0
75 26 83 46 4 10 -21 68 -66 154 -43 83 -69 143 -65 153 3 9 29 28 56 41 62
32 74 51 55 88 -19 37 -44 36 -128 -9z"/>
<path d="M1801 747 c-6 -8 -25 -60 -41 -116 -34 -115 -33 -124 28 -141 46 -12
64 2 81 70 14 55 42 80 67 59 8 -6 14 -21 14 -32 0 -41 -50 -187 -68 -196 -11
-6 -37 -3 -77 10 -82 26 -107 22 -119 -19 -13 -45 0 -55 109 -86 159 -46 202
-18 254 167 52 181 33 224 -121 271 -98 30 -111 31 -127 13z"/>
<path d="M2975 705 c-69 -19 -115 -70 -115 -126 0 -64 48 -240 76 -276 35 -46
87 -58 160 -39 66 17 110 55 124 106 7 28 3 58 -19 148 -16 62 -36 123 -45
137 -37 56 -99 73 -181 50z m63 -103 c12 -8 62 -170 62 -204 0 -10 -10 -22
-21 -29 -32 -16 -45 3 -74 106 -29 107 -29 100 -9 119 17 18 24 19 42 8z"/>
<path d="M2230 640 c-12 -8 -16 -45 -18 -215 -3 -150 0 -210 8 -221 16 -18 84
-18 99 0 7 8 14 78 19 172 l7 159 30 0 30 0 3 -161 c2 -113 6 -165 15 -172 6
-5 69 -13 138 -16 110 -6 128 -5 143 9 14 15 16 42 14 228 l-3 212 -43 3 c-65
5 -72 -5 -73 -117 -2 -160 -11 -225 -32 -229 -42 -8 -47 12 -47 179 l0 159
-26 10 c-32 13 -244 13 -264 0z"/>
</g>
</svg>
